{"title":"Rychly Prachy (PRAHA - 17.07.2011) - Nikola","uid":6553614,"size":400492441,"categoryP":"porn","categoryS":"movies","magnet":"?xt=urn:btih:2fb6d3a0f76db103d5c8a18180338d8d6736298d&amp;dn=Rychly+Prachy+%28PRAHA+-+17.07.2011%29+-+Nikola&amp;tr=udp%3A%2F%2Ftracker.openbittorrent.com%3A80&amp;tr=udp%3A%2F%2Fopen.demonii.com%3A1337&amp;tr=udp%3A%2F%2Ftracker.coppersurfer.tk%3A6969&amp;tr=udp%3A%2F%2Fexodus.desync.com%3A6969","seeders":1,"leechers":0,"uploader":"AvHmT","files":4,"time":1311194838,"description":"\n\n                Rychly Prachy (PRAHA - 17.07.2011) - Nikola\n\n\n\n  Without advertising kinotip!\n\n\nScreen:         &lt;a href=&quot; http://image.bayimg.com/aajkeaadd.jpg&quot; rel=&quot;nofollow&quot; target=&quot;_NEW&quot;&gt; http://image.bayimg.com/aajkeaadd.jpg&lt;/a&gt;\n\nOficial website: http://rychlyprachy.cz/\n\nDirect Link:    &lt;a href=&quot; http://rychlyprachy.cz/video54.cz.html&quot; rel=&quot;nofollow&quot; target=&quot;_NEW&quot;&gt; http://rychlyprachy.cz/video54.cz.html&lt;/a&gt;\n\n\n\nGeneral\nComplete name                    : Rychly Prachy (PRAHA - 17.07.2011) - Nikola.wmv\nFormat                           : Windows Media\nFile size                        : 382 MiB\nDuration                         : 20mn 15s\nOverall bit rate mode            : Constant\nOverall bit rate                 : 2 634 Kbps\nMaximum Overall bit rate         : 2 645 Kbps\nEncoded date                     : UTC 2011-07-18 20:27:21.642\nSfOriginalFPS                    : 300000\n\nVideo\nID                               : 2\nFormat                           : VC-1\nFormat profile                   : MP@ML\nCodec ID                         : WMV3\nCodec ID/Info                    : Windows Media Video 9\nCodec ID/Hint                    : WMV3\nDescription of the codec         : Windows Media Video 9 - Professional\nDuration                         : 20mn 15s\nBit rate mode                    : Constant\nBit rate                         : 2 525 Kbps\nWidth                            : 640 pixels\nHeight                           : 480 pixels\nDisplay aspect ratio             : 4:3\nFrame rate                       : 30.000 fps\nBit depth                        : 8 bits\nScan type                        : Progressive\nCompression mode                 : Lossy\nBits/(Pixel*Frame)               : 0.274\nStream size                      : 366 MiB (96%)\nLanguage                         : Czech\n\nAudio\nID                               : 1\nFormat                           : WMA\nFormat version                   : Version 2\nCodec ID                         : 161\nCodec ID/Info                    : Windows Media Audio\nDescription of the codec         : Windows Media Audio 9.2 -  96 kbps, 44 kHz, stereo (A/V) 1-pass CBR\nDuration                         : 20mn 15s\nBit rate mode                    : Constant\nBit rate                         : 96.0 Kbps\nChannel(s)                       : 2 channels\nSampling rate                    : 44.1 KHz\nBit depth                        : 16 bits\nStream size                      : 13.9 MiB (4%)\nLanguage                         : Czech\n\n\n","torrent":{"xt":"urn:btih:2fb6d3a0f76db103d5c8a18180338d8d6736298d","amp;dn":"Rychly+Prachy+%28PRAHA+-+17.07.2011%29+-+Nikola","amp;tr":["udp%3A%2F%2Ftracker.openbittorrent.com%3A80","udp%3A%2F%2Fopen.demonii.com%3A1337","udp%3A%2F%2Ftracker.coppersurfer.tk%3A6969","udp%3A%2F%2Fexodus.desync.com%3A6969"],"infoHash":"2fb6d3a0f76db103d5c8a18180338d8d6736298d","infoHashBuffer":{"type":"Buffer","data":[47,182,211,160,247,109,177,3,213,200,161,129,128,51,141,141,103,54,41,141]},"announce":[],"urlList":[]}}